# xmcd
#
# Track frame offsets: 
#        150
#        12309
#        25548
#        39989
#        52738
#        66737
#        79555
#        91049
#        104819
#        115500
#        129816
#        143051
#        156679
#        168981
#        181091
#        190780
#        203501
#        215875
#        229785
#        243701
#        257590
#        270018
#        281337
#        295810
#        308970
#        321493
#
# Disc length: 4480 seconds
#
# Revision: 0
# Processed by: cddbd v1.5.2PL0 Copyright (c) Steve Scherf et al.
# Submitted via: ExactAudioCopyFreeDBPlugin 1.0
#
DISCID=65117e1a
DTITLE=T-Bone Walker - The Classic Years
DYEAR=1900
DGENRE=Blues
TTITLE0=Alimony Blues
TTITLE1=It's a low down dirty deal
TTITLE2=Cold, cold feeling
TTITLE3=Long skirt baby blues
TTITLE4=Street walking woman
TTITLE5=Hypin' woman blues
TTITLE6=Evil hearted woman
TTITLE7=Call it stormy monday
TTITLE8=Travellin' blues
TTITLE9=First love blues
TTITLE10=You don't love me
TTITLE11=T-Bone shuffle
TTITLE12=I get so weary
TTITLE13=Bobby Sox blues
TTITLE14=Hard way
TTITLE15=Inspiration blues
TTITLE16=Baby broke my heart
TTITLE17=T-Bone boggie
TTITLE18=Plain old down home blues
TTITLE19=Get these blues off me
TTITLE20=Too much trouble blues
TTITLE21=Strollin' with Bone
TTITLE22=Wichita Fall blues
TTITLE23=Love is just a gamble
TTITLE24=I'm in an awful mood
TTITLE25=T-Bone blues
EXTD=
EXTT0=
EXTT1=
EXTT2=
EXTT3=
EXTT4=
EXTT5=
EXTT6=
EXTT7=
EXTT8=
EXTT9=
EXTT10=
EXTT11=
EXTT12=
EXTT13=
EXTT14=
EXTT15=
EXTT16=
EXTT17=
EXTT18=
EXTT19=
EXTT20=
EXTT21=
EXTT22=
EXTT23=
EXTT24=
EXTT25=
PLAYORDER=
